<svg xmlns="http://www.w3.org/2000/svg" width="640" height="360" viewBox="0 0 640 360" role="img" aria-labelledby="t">
  <title id="t">Escalation theater</title>
  <defs>
    <marker id="a" viewBox="0 0 10 10" refX="9" refY="5" markerWidth="6" markerHeight="6" orient="auto-start-reverse">
      <path d="M0 0 L10 5 L0 10 z" fill="#334155"/>
    </marker>
  </defs>
  <rect width="640" height="360" fill="#ffffff"/>

  <rect x="30" y="20" width="80" height="36" rx="6" fill="#eff6ff" stroke="#1e40af"/>
  <text x="70" y="43" text-anchor="middle" font-family="system-ui,sans-serif" font-size="12" fill="#0f172a">User</text>

  <rect x="170" y="20" width="90" height="36" rx="6" fill="#f5f3ff" stroke="#6d28d9"/>
  <text x="215" y="43" text-anchor="middle" font-family="system-ui,sans-serif" font-size="12" fill="#0f172a">Ollama</text>

  <rect x="320" y="20" width="90" height="36" rx="6" fill="#fef3c7" stroke="#b45309"/>
  <text x="365" y="43" text-anchor="middle" font-family="system-ui,sans-serif" font-size="12" fill="#0f172a">FastAPI</text>

  <rect x="480" y="20" width="110" height="36" rx="6" fill="#ecfdf5" stroke="#047857"/>
  <text x="535" y="43" text-anchor="middle" font-family="system-ui,sans-serif" font-size="12" fill="#0f172a">ChatWindow</text>

  <line x1="70" y1="56" x2="70" y2="300" stroke="#cbd5e1" stroke-dasharray="3 4"/>
  <line x1="215" y1="56" x2="215" y2="300" stroke="#cbd5e1" stroke-dasharray="3 4"/>
  <line x1="365" y1="56" x2="365" y2="300" stroke="#cbd5e1" stroke-dasharray="3 4"/>
  <line x1="535" y1="56" x2="535" y2="300" stroke="#cbd5e1" stroke-dasharray="3 4"/>

  <line x1="70" y1="90" x2="215" y2="90" stroke="#334155" marker-end="url(#a)"/>
  <text x="142" y="84" text-anchor="middle" font-family="system-ui,sans-serif" font-size="11" fill="#334155">request human</text>

  <line x1="215" y1="130" x2="365" y2="130" stroke="#334155" marker-end="url(#a)"/>
  <text x="290" y="124" text-anchor="middle" font-family="system-ui,sans-serif" font-size="11" fill="#334155">escalate_to_human</text>

  <line x1="365" y1="160" x2="365" y2="190" stroke="#334155" marker-end="url(#a)"/>
  <text x="430" y="180" font-family="system-ui,sans-serif" font-size="11" fill="#334155">state = escalated</text>

  <line x1="365" y1="220" x2="535" y2="220" stroke="#334155" stroke-dasharray="4 3" marker-end="url(#a)"/>
  <text x="450" y="214" text-anchor="middle" font-family="system-ui,sans-serif" font-size="11" fill="#334155">stream + meta</text>

  <line x1="535" y1="250" x2="535" y2="280" stroke="#334155" marker-end="url(#a)"/>
  <text x="560" y="270" font-family="system-ui,sans-serif" font-size="11" fill="#047857">agent-joined script</text>

  <line x1="535" y1="310" x2="70" y2="310" stroke="#334155" stroke-dasharray="4 3" marker-end="url(#a)"/>
  <text x="300" y="304" text-anchor="middle" font-family="system-ui,sans-serif" font-size="11" fill="#334155">Melany greeting (theater)</text>

  <rect x="80" y="330" width="480" height="24" rx="4" fill="#fef2f2" stroke="#fecaca"/>
  <text x="320" y="347" text-anchor="middle" font-family="system-ui,sans-serif" font-size="11" fill="#991b1b">Shipment tools still require verified customer_id  no wider access</text>
</svg>
